<?xml version="1.0" encoding="UTF-8"?>
<svg version="1.1" xmlns="http://www.w3.org/2000/svg" width="1348" height="412">
<path d="M0 0 C0.33 0.33 0.66 0.66 1 1 C3.11667127 1.09900272 5.23672169 1.12566376 7.35570699 1.12600785 C8.36994628 1.12822124 8.36994628 1.12822124 9.40467526 1.13047934 C11.70342073 1.13425182 14.00210162 1.13081182 16.30084705 1.12749195 C17.95946829 1.12872441 19.61808925 1.13039698 21.27670965 1.13247326 C25.8773587 1.13694734 30.47798797 1.13513525 35.07863761 1.13239995 C40.06773039 1.13053508 45.05681893 1.13446714 50.04591054 1.13771313 C58.80439432 1.14262132 67.56287272 1.1438563 76.32135773 1.14274788 C89.34569807 1.14114228 102.37003199 1.14529055 115.39437104 1.15082836 C135.28619977 1.15921028 155.17802779 1.16463957 175.06985799 1.16771799 C207.69622668 1.17277294 240.32258425 1.18742614 272.94894759 1.20640401 C280.58004412 1.21084156 288.2111407 1.21516003 295.84223729 1.21947271 C297.24017219 1.22026324 298.63810709 1.22105381 300.03604199 1.22184439 C302.84060579 1.22343024 305.64516959 1.22501484 308.44973339 1.22659888 C311.26474889 1.22818925 314.07976438 1.22978373 316.89477988 1.23138161 C349.38037216 1.24981556 381.86596516 1.26661816 414.35155907 1.28192069 C416.55450399 1.28295924 418.75744891 1.28400269 420.96039383 1.28504662 C454.88190004 1.3010865 488.80340496 1.31413515 522.72491455 1.32006836 C523.81890626 1.3202605 523.81890626 1.3202605 524.9349988 1.32045652 C536.69394292 1.32251255 548.45288707 1.32441152 560.21183123 1.32627667 C594.0833619 1.33165002 627.95488628 1.33944167 661.82641125 1.36063671 C662.52302108 1.36107139 663.21963092 1.36150606 663.93735015 1.36195391 C678.54325875 1.37109921 693.14916664 1.38108795 707.75507391 1.39216815 C714.59509481 1.39735453 721.43511583 1.40235403 728.27513695 1.40724754 C729.28530902 1.40797529 729.28530902 1.40797529 730.31588862 1.40871774 C752.01010025 1.4242534 773.70428916 1.4266595 795.39850514 1.4220174 C817.86131309 1.41725486 840.32407796 1.42633691 862.78687332 1.45167748 C875.73961902 1.46583761 888.69225585 1.46878893 901.6450034 1.45583495 C910.2942327 1.44827406 918.94337224 1.45515193 927.5925845 1.47381646 C932.52282414 1.4840378 937.45284505 1.48792136 942.38308112 1.47419123 C946.8707987 1.46181483 951.35810269 1.46790237 955.84578642 1.48854202 C957.45681008 1.49274563 959.06786883 1.49029862 960.67886677 1.48027276 C976.21046336 1.3905929 989.64693625 4.85015224 1001.25 15.75 C1014.86961692 30.24830188 1015.59084998 46.35361891 1015.51757812 65.203125 C1015.52300474 67.54993116 1015.53013042 69.89673392 1015.53881836 72.24353027 C1015.55699019 78.59061604 1015.55000941 84.93744054 1015.53730202 91.28453064 C1015.52817392 97.26554289 1015.5351576 103.24653172 1015.5410108 109.22754335 C1015.5523915 121.79508986 1015.53934247 134.36251927 1015.51780933 146.93004656 C1015.4999406 157.69170421 1015.50304541 168.45318921 1015.52148438 179.21484375 C1015.54293563 191.74028231 1015.5512931 204.26561848 1015.53903532 216.79107285 C1015.53273158 223.41108266 1015.53192748 230.0309965 1015.54518127 236.65100098 C1015.55677486 242.87608112 1015.54864962 249.1008367 1015.52560425 255.32588196 C1015.52033593 257.60422732 1015.52179856 259.88260021 1015.53065491 262.16093445 C1015.59308409 279.85898477 1013.92164764 294.76082671 1001.25 308.25 C989.33448992 319.44335796 975.74362525 322.61468957 959.7849617 322.50780869 C958.27052676 322.51248413 956.7560964 322.51890968 955.24167538 322.52691096 C951.09208435 322.54379964 946.94285783 322.53597156 942.79326341 322.52400398 C938.27309584 322.51539776 933.75299275 322.53004699 929.2328403 322.541713 C921.31272262 322.55896511 913.39270773 322.56144015 905.47257614 322.55419731 C893.69141725 322.54349128 881.91035953 322.55569963 870.12921182 322.57256903 C850.28990486 322.60032648 830.45062983 322.60949968 810.61130524 322.60811615 C790.9161374 322.60680357 771.22100086 322.61377463 751.52584076 322.63169098 C750.29888159 322.63280237 749.07192243 322.63391376 747.80778268 322.63505882 C741.57455231 322.64074717 735.3413221 322.64658151 729.10809192 322.65247145 C684.91581441 322.693962 640.72354448 322.71691047 596.53125 322.72900391 C585.82572424 322.73194157 575.12019851 322.73494474 564.41467285 322.73822021 C563.75117667 322.73842317 563.08768049 322.73862612 562.40407837 322.73883522 C531.0473743 322.74851822 499.69068132 322.76925772 468.33398438 322.79248047 C467.02252177 322.79344842 465.71105916 322.79441637 464.35985527 322.79541365 C451.18045251 322.80514993 438.00104989 322.81505342 424.82164735 322.82506842 C397.76608844 322.84561533 370.71052863 322.86484139 343.65496826 322.88336182 C342.40524542 322.88421815 341.15552257 322.88507447 339.86792934 322.88595675 C284.96432208 322.92347982 230.06071202 322.94979366 175.15709603 322.97046939 C172.00165533 322.97166317 168.84621465 322.97287498 165.69077396 322.9740932 C164.16359493 322.97467778 164.16359493 322.97467778 162.6055638 322.97527418 C160.57566954 322.97605998 158.54577528 322.97686568 156.51588103 322.97769175 C151.56697597 322.97966349 146.61807148 322.98121756 141.66916606 322.98186263 C133.17135608 322.9832904 124.67359568 322.98676542 116.1758048 323.00603071 C111.64539659 323.01622311 107.11498672 323.02406536 102.58457184 323.0306015 C101.69920022 323.03192327 100.8138286 323.03324504 99.90162754 323.03460686 C87.83968271 323.04803289 75.78287285 322.95124569 63.72232927 322.76937602 C57.1607696 322.67054319 50.59898704 322.59996692 44.03700779 322.53556085 C38.77924593 322.48105196 33.5241937 322.38734206 28.26766073 322.26236314 C25.0547008 322.19536116 21.84219337 322.16616654 18.62862495 322.14722496 C17.15600967 322.13078953 15.68346458 322.09878536 14.21158954 322.04929036 C6.25784749 321.78955095 1.09026108 322.23589678 -5.19833446 327.37371707 C-6.80775967 328.90655178 -8.4092339 330.44780962 -10 332 C-12.66594752 333.94410819 -15.42106756 335.67871669 -18.25 337.375 C-19.00249023 337.8277832 -19.75498047 338.28056641 -20.53027344 338.74707031 C-67.19655829 366.21675767 -123.96431532 375.53723569 -176.72265625 362.40625 C-209.17144205 353.93060125 -240.56531078 338.16425477 -265 315 C-266.66519918 313.53999124 -268.33189673 312.08168987 -270 310.625 C-308.42856545 275.84206829 -329.85514094 224.1524183 -333 173 C-334.89315829 119.08906449 -318.09221617 64.06680459 -281 24 C-273.1643611 15.65136257 -265.26421055 7.69135814 -255.8984375 1.0625 C-252.8085145 -1.13625922 -249.88980951 -3.49530468 -246.9375 -5.875 C-178.36267155 -59.51221889 -65.60131825 -57.94563121 0 0 Z " fill="#DA282D" transform="translate(333,44)"/>
<path d="M0 0 C5.41373823 4.91614127 10.73044191 9.92990811 16 15 C16.61262695 15.5892627 17.22525391 16.17852539 17.85644531 16.78564453 C29.56942335 28.11548777 38.99437708 40.44543753 48 54 C48.68320312 55.02609375 49.36640625 56.0521875 50.0703125 57.109375 C50.62460937 57.98078125 51.17890625 58.8521875 51.75 59.75 C52.21921875 60.48734375 52.6884375 61.2246875 53.171875 61.984375 C54 64 54 64 54.015625 66.015625 C53 68 53 68 50.38998413 69.6837616 C46.34097028 72.30319999 43.11943384 75.62378648 39.74462891 79.04418945 C39.04459244 79.74554016 38.34455597 80.44689087 37.62330627 81.16949463 C35.3197506 83.47951888 33.02325892 85.79643902 30.7265625 88.11328125 C29.11813696 89.72798316 27.50919121 91.34216702 25.89974976 92.95585632 C21.66699716 97.20189453 17.43984589 101.45346167 13.21429443 105.70666504 C6.45999828 112.50410794 -0.30097739 119.29488957 -7.06532669 126.08232689 C-9.4184922 128.44565269 -11.76817712 130.81239779 -14.11752319 133.17951965 C-15.57350955 134.64234074 -17.02960925 136.10504901 -18.48583984 137.56762695 C-19.13025528 138.21877975 -19.77467072 138.86993256 -20.43861389 139.54081726 C-23.46592194 142.57556718 -26.53371325 145.49804656 -29.7875061 148.28948975 C-35.08319083 152.86676813 -39.97641928 157.84452098 -44.9140625 162.80053711 C-45.98890541 163.87566265 -47.06396967 164.95056694 -48.13923645 166.02526855 C-51.03554097 168.92128806 -53.9287681 171.82036393 -56.82142258 174.72002864 C-59.85318364 177.75807265 -62.88780732 180.79325461 -65.92211914 183.82875061 C-71.65770897 189.56743925 -77.39074653 195.30867055 -83.12285519 201.05083615 C-89.65297206 207.59215934 -96.18595402 214.13061792 -102.71916962 220.66884601 C-116.14928729 234.10939523 -129.57583068 247.5535098 -143 261 C-148.76143187 256.21929185 -154.03588393 251.07594712 -159.29663086 245.75341797 C-160.68579807 244.35461241 -162.07496828 242.95580982 -163.46425164 241.55711961 C-164.94506102 240.0654491 -166.42465694 238.57258359 -167.90400505 237.07946396 C-170.99850768 233.95693081 -174.09858927 230.83997666 -177.19984436 227.72415161 C-178.26515418 226.65369918 -179.33045697 225.58323976 -180.39575291 224.51277351 C-180.92889422 223.97704664 -181.46203552 223.44131978 -182.01133263 222.88935876 C-189.22082433 215.64392341 -196.42547614 208.39372579 -203.61987305 201.13330078 C-208.48672804 196.22186945 -213.36073775 191.31766006 -218.2428866 186.42142975 C-220.82063866 183.83563137 -223.39458574 181.24628632 -225.95969963 178.6479454 C-228.82031421 175.7503337 -231.69642437 172.86858705 -234.57397461 169.98779297 C-235.83278946 168.7050499 -235.83278946 168.7050499 -237.11703491 167.39639282 C-242.2923855 162.24753625 -247.13295511 158.04733877 -254.46875 156.46875 C-255.1390625 156.4790625 -255.809375 156.489375 -256.5 156.5 C-257.1703125 156.4896875 -257.840625 156.479375 -258.53125 156.46875 C-267.76175152 158.45506045 -273.43818864 164.86240756 -279.8125 171.375 C-280.76163037 172.31845279 -281.71149578 173.26116671 -282.66210938 174.203125 C-290.75803374 182.17784994 -290.75803374 182.17784994 -293.4375 192.875 C-293.45683594 193.65617188 -293.47617187 194.43734375 -293.49609375 195.2421875 C-292.13116394 202.82990757 -287.50561499 208.07195893 -282.15527344 213.31469727 C-281.47503616 213.99712494 -280.79479889 214.67955261 -280.09394836 215.38265991 C-277.85858436 217.62032197 -275.60931643 219.84341008 -273.359375 222.06640625 C-271.7916163 223.62923524 -270.22467343 225.19288301 -268.6585083 226.75730896 C-265.37940708 230.02878525 -262.09397265 233.29370868 -258.80322266 236.5534668 C-254.60077929 240.71638621 -250.40912875 244.88995573 -246.2215538 249.06782627 C-242.20849433 253.07087207 -238.19053774 257.06898674 -234.171875 261.06640625 C-233.41307793 261.82180758 -232.65428085 262.5772089 -231.87248993 263.35550117 C-229.70506452 265.51124295 -227.5342544 267.66351494 -225.36230469 269.81469727 C-224.73344864 270.44086441 -224.10459259 271.06703156 -223.4566803 271.71217346 C-219.7191963 275.40527998 -215.85795425 278.89775795 -211.88535309 282.33574581 C-209.1899195 284.71508084 -206.65747336 287.2326448 -204.13818359 289.79589844 C-203.34621834 290.59487297 -203.34621834 290.59487297 -202.53825378 291.4099884 C-201.4083288 292.55030128 -200.27952543 293.6917265 -199.15177536 294.83419037 C-197.36321633 296.64503503 -195.5704946 298.45166245 -193.77651978 300.25714111 C-188.68194139 305.38508019 -183.59174232 310.51730691 -178.51171875 315.65966797 C-175.39020546 318.8188899 -172.26137008 321.97070039 -169.12776566 325.11792755 C-167.94090081 326.31281993 -166.75681345 327.51047807 -165.575634 328.71099091 C-163.92498119 330.38821547 -162.2651615 332.05584329 -160.60302734 333.72167969 C-160.12287674 334.21418716 -159.64272614 334.70669464 -159.14802551 335.21412659 C-154.81452902 339.52235737 -150.34721245 342.42729965 -144.125 342.4375 C-143.34382812 342.45683594 -142.56265625 342.47617187 -141.7578125 342.49609375 C-133.96744697 341.09471071 -128.69934868 336.26726648 -123.33398438 330.7722168 C-122.61414871 330.05135895 -121.89431305 329.3305011 -121.15266418 328.58779907 C-118.79020564 326.21749701 -116.44212939 323.83346328 -114.09375 321.44921875 C-112.44378335 319.78923882 -110.79284791 318.13022133 -109.14099121 316.47212219 C-104.80185986 312.11209973 -100.47443589 307.74064668 -96.14984131 303.36621094 C-89.23209879 296.37310063 -82.29565498 289.39852771 -75.36116028 282.42203712 C-72.94965016 279.99293551 -70.54247843 277.55960447 -68.1361084 275.12541199 C-66.6461346 273.62220696 -65.1561065 272.11905577 -63.66601562 270.6159668 C-63.0060408 269.94611252 -62.34606598 269.27625824 -61.66609192 268.58610535 C-58.6291992 265.52799054 -55.55838122 262.58070908 -52.28233337 259.77935791 C-46.50707169 254.79087119 -41.19676894 249.31964574 -35.81665039 243.91430664 C-34.60550943 242.70124341 -33.3941383 241.48840994 -32.18255615 240.27578735 C-29.58880361 237.67889023 -26.99660858 235.08045214 -24.4056263 232.48079109 C-20.31187396 228.37346311 -16.21426211 224.27000004 -12.11607361 220.167099 C-3.42857528 211.46853247 5.25466478 202.76572083 13.9375 194.0625 C23.33629808 184.64167994 32.73583097 175.22159982 42.1402207 165.80636114 C46.21826642 161.72332084 50.29385917 157.63785214 54.36761749 153.55053437 C56.89214636 151.01857873 59.41871607 148.48866737 61.94586182 145.95932388 C63.12188538 144.78141903 64.29703968 143.60264562 65.47128487 142.42296791 C67.06659284 140.82050833 68.66489652 139.22109959 70.26402283 137.62245178 C71.15975478 136.72449922 72.05548674 135.82654665 72.97836208 134.9013834 C75 133 75 133 76 133 C77.99253257 141.72243616 78.31338029 150.13789891 78.25 159.0625 C78.24689819 159.74697205 78.24379639 160.43144409 78.24060059 161.13665771 C78.18364753 171.86918003 77.73847152 182.39699762 76 193 C75.87641113 193.79954102 75.75282227 194.59908203 75.62548828 195.42285156 C72.55829362 214.86700681 67.04058665 233.485864 58 251 C57.47768799 252.03398926 57.47768799 252.03398926 56.94482422 253.08886719 C50.90724398 265.02529406 44.25756153 276.19170074 35.86865234 286.66088867 C34.6477962 288.18911218 33.43839483 289.72657669 32.2421875 291.27416992 C27.37911521 297.50879646 22.13017697 303.14317646 16.5 308.6875 C15.69691406 309.48994141 14.89382813 310.29238281 14.06640625 311.11914062 C0.23874959 324.84594728 -14.68674684 336.05389393 -32 345 C-32.72670898 345.37898438 -33.45341797 345.75796875 -34.20214844 346.1484375 C-81.43744746 370.49105593 -138.33955958 374.58160755 -188.9230957 358.96484375 C-216.83100358 349.90459824 -243.664332 335.22636118 -265 315 C-266.66519918 313.53999124 -268.33189673 312.08168987 -270 310.625 C-308.42856545 275.84206829 -329.85514094 224.1524183 -333 173 C-334.89315829 119.08906449 -318.09221617 64.06680459 -281 24 C-273.1643611 15.65136257 -265.26421055 7.69135814 -255.8984375 1.0625 C-252.8085145 -1.13625922 -249.88980951 -3.49530468 -246.9375 -5.875 C-178.72704023 -59.2272204 -65.12238899 -58.36440523 0 0 Z " fill="#DA2A2F" transform="translate(333,44)"/>
<path d="M0 0 C10.55283133 -0.23212355 21.1050516 -0.40959292 31.65991974 -0.51812172 C36.56163456 -0.57022309 41.46159795 -0.64083383 46.36230469 -0.75439453 C51.09572936 -0.86338725 55.8274745 -0.92290922 60.5620575 -0.94877243 C62.36433859 -0.96719169 64.16653185 -1.0031647 65.96809387 -1.05730057 C80.05968417 -1.46374225 80.05968417 -1.46374225 84.82392883 2.13032532 C86.8858928 4.66640433 88.45416995 7.12691238 90 10 C91.04428793 11.5483216 92.09853056 13.09003561 93.16796875 14.62109375 C106.16902671 35.03315752 116.29680958 56.4697388 123.24487305 79.65771484 C123.77543043 81.30342047 124.37350747 82.92813116 125.01904297 84.53222656 C130.80679893 99.09236524 132.29243897 115.55653798 134 131 C134.12377266 132.00574821 134.12377266 132.00574821 134.25004578 133.03181458 C134.86205289 138.15276418 135.18332051 143.19977876 135.23828125 148.35546875 C135.24812042 149.12689713 135.25795959 149.8983255 135.26809692 150.69313049 C135.63453211 187.00767464 131.71184817 224.52426598 116.02075195 257.8203125 C115.03519705 259.92484113 114.09326602 262.04365288 113.16015625 264.171875 C106.79589908 278.50647405 99.67311035 292.44963662 90.71054077 305.3531189 C88.90411027 308.0412289 88.90411027 308.0412289 87.36953735 311.26800537 C82.5082486 320.04191798 82.5082486 320.04191798 78.14124489 321.70999336 C72.67606932 322.76813788 67.14557067 322.3437805 61.62109375 322.05078125 C59.8404787 322.00403444 58.05970171 321.96312496 56.27882385 321.92778015 C51.61498199 321.81965991 46.95756726 321.63289504 42.29705811 321.42907715 C37.53207006 321.23482031 32.76525221 321.11578932 27.99804688 320.99023438 C18.66207098 320.73334561 9.33115768 320.39324885 0 320 C3.2658039 316.73144058 6.54295357 313.47554739 9.8359375 310.234375 C11.6824353 308.40639508 13.52878507 306.57826562 15.375 304.75 C16.29539062 303.84636719 17.21578125 302.94273437 18.1640625 302.01171875 C23.58100664 296.63346706 28.51350064 291.17616358 33 285 C33.4640625 284.3694873 33.928125 283.73897461 34.40625 283.08935547 C46.57506734 266.32154595 56.11039001 248.33027135 63.29223633 228.90722656 C63.91553918 227.22759847 64.56149524 225.55641385 65.2109375 223.88671875 C68.25898868 215.50969218 70.12083335 207.07450011 71.75 198.3125 C71.96060059 197.18481201 72.17120117 196.05712402 72.38818359 194.89526367 C74.50010712 183.04790888 75.18676033 171.4274607 75.18530273 159.39941406 C75.18750517 157.37023397 75.20579439 155.34158586 75.22460938 153.3125 C75.22654297 152.00023437 75.22847656 150.68796875 75.23046875 149.3359375 C75.23457764 148.16595215 75.23868652 146.9959668 75.24291992 145.79052734 C75.04102736 142.64019176 74.62093134 139.83967095 73.9848175 136.76309204 C73.80138448 135.86917063 73.61795145 134.97524921 73.42895985 134.05423927 C73.2874031 133.37634031 73.14584635 132.69844135 73 132 C72.34254288 132.65837892 71.68508575 133.31675783 71.00770569 133.99508762 C54.99340021 150.03161511 38.97619479 166.06524164 22.95596313 182.09584904 C15.20869903 189.84826443 7.46237205 197.60161185 -0.28173828 205.35717773 C-7.0332894 212.11871137 -13.78660995 218.87847187 -20.54204082 225.63612932 C-24.11728111 229.21267065 -27.69164292 232.79007991 -31.2638855 236.36961555 C-34.63019774 239.74274432 -37.99888135 243.11348688 -41.36935234 246.48246002 C-42.60209072 247.7154722 -43.83398049 248.94933353 -45.06492805 250.18413353 C-50.64106192 255.77685294 -56.21135512 261.31062111 -62.22103691 266.44338894 C-65.37227421 269.20075409 -68.28709112 272.18986505 -71.22290039 275.17285156 C-71.89557449 275.85180481 -72.5682486 276.53075806 -73.26130676 277.23028564 C-74.7071294 278.68985208 -76.15186447 280.15049651 -77.59559822 281.61212921 C-79.88397766 283.9273728 -82.17690122 286.23802269 -84.47129822 288.54730225 C-90.98949369 295.1080387 -97.50487457 301.67149056 -104.00415039 308.25097656 C-107.99232303 312.28770468 -111.99022347 316.31457247 -115.994627 320.33519745 C-117.51369066 321.86414156 -119.02909539 323.39673023 -120.5406971 324.93305206 C-122.65345601 327.07961505 -124.77839548 329.21338563 -126.90649414 331.34472656 C-127.52331055 331.97749512 -128.14012695 332.61026367 -128.77563477 333.26220703 C-133.73540043 338.18772634 -138.74296827 341.42556409 -146 341.4375 C-147.175625 341.46650391 -147.175625 341.46650391 -148.375 341.49609375 C-154.95368645 340.25280033 -159.65715489 335.7742445 -164.17553711 331.14916992 C-164.74892319 330.57461563 -165.32230927 330.00006134 -165.91307068 329.40809631 C-167.79157908 327.52244852 -169.65933318 325.62651155 -171.52734375 323.73046875 C-172.84265412 322.40700964 -174.15871202 321.08429307 -175.47547913 319.76228333 C-178.93286359 316.28782912 -182.38158011 312.80490453 -185.82806396 309.31964111 C-191.33752963 303.75087389 -196.85969805 298.19471205 -202.3826313 292.63930702 C-204.29965174 290.70845084 -206.2127292 288.77375744 -208.12522888 286.83842468 C-213.20554827 281.70922553 -218.26776023 276.67361365 -223.76869202 271.99284363 C-229.76832132 266.63440673 -235.37797585 260.83278853 -241.078125 255.16015625 C-241.79394493 254.44841185 -242.50976486 253.73666744 -243.24727631 253.00335503 C-247.02847838 249.24290023 -250.80647604 245.47925866 -254.58203125 241.71313477 C-258.46943377 237.83683562 -262.36838192 233.97236558 -266.26997757 230.11036015 C-269.28271882 227.12379323 -272.28651194 224.12834617 -275.28798676 221.13046074 C-276.72147944 219.70182358 -278.15833506 218.27655217 -279.59867096 216.85481453 C-281.61344945 214.86446721 -283.61513602 212.8617691 -285.61425781 210.85571289 C-286.20445709 210.27832367 -286.79465637 209.70093445 -287.40274048 209.10604858 C-292.29141815 204.15556891 -296.57470656 198.22628239 -296.5625 191 C-296.58441406 190.236875 -296.60632813 189.47375 -296.62890625 188.6875 C-294.54082894 179.76453609 -286.87763412 173.39237094 -280.625 167.1875 C-279.70460938 166.24712891 -278.78421875 165.30675781 -277.8359375 164.33789062 C-267.06893638 153.57858022 -267.06893638 153.57858022 -258.5625 153.5625 C-257.88316406 153.54316406 -257.20382812 153.52382812 -256.50390625 153.50390625 C-247.60541546 155.26694577 -242.02922561 161.41960811 -235.91210938 167.63378906 C-234.92658038 168.62044814 -233.9401662 169.60622372 -232.95294189 170.59118652 C-230.29157927 173.25140735 -227.64268124 175.92372789 -224.99593925 178.59848499 C-222.2218295 181.39769782 -219.43629325 184.18549366 -216.65197754 186.97454834 C-211.38844318 192.25048638 -206.13518364 197.53653213 -200.88558817 202.82633567 C-194.90555618 208.8511667 -188.91408364 214.86456538 -182.92164898 220.8770566 C-170.60170795 233.23874282 -158.29612609 245.61462582 -146 258 C-139.74172443 252.83281102 -134.04588501 247.17412908 -128.32641602 241.42407227 C-127.26470953 240.36044341 -126.20277278 239.29704437 -125.140625 238.2338562 C-122.86499301 235.95507811 -120.59092042 233.67475946 -118.31805611 231.3932209 C-114.71814447 227.77971314 -111.11435584 224.17008848 -107.50999451 220.5610199 C-99.20834022 212.24735444 -90.91171317 203.92867797 -82.61514282 195.60993958 C-75.00970644 187.98428263 -67.40319263 180.35970862 -59.79260772 172.73918957 C-56.21575451 169.15737811 -52.64134827 165.57314845 -49.06884587 161.98699772 C-46.83900964 159.74965861 -44.60706438 157.51443238 -42.37456512 155.27975082 C-41.3466015 154.2499283 -40.31949591 153.21924839 -39.29335594 152.18760872 C-34.2826301 147.15089412 -29.23734966 142.24600377 -23.8447485 137.61988163 C-20.69657256 134.85545473 -17.76632903 131.88063545 -14.82128906 128.90307617 C-14.15354965 128.2322702 -13.48581024 127.56146423 -12.7978363 126.87033081 C-11.36342116 125.42881843 -9.93013912 123.98617778 -8.49790192 122.54250145 C-6.23060437 120.25767741 -3.95966363 117.97653226 -1.68768311 115.69636536 C4.76606515 109.21827091 11.21403669 102.73444857 17.65771484 96.24633789 C21.61138947 92.26590888 25.5698991 88.29034195 29.53144073 84.3177433 C31.03723567 82.80574004 32.54113038 81.29184187 34.04308319 79.77602196 C36.13715307 77.66277152 38.23727824 75.55572033 40.33886719 73.44995117 C40.95711868 72.82293808 41.57537018 72.19592499 42.21235657 71.5499115 C42.78687057 70.97670166 43.36138458 70.40349182 43.95330811 69.81291199 C44.44806011 69.31501758 44.94281212 68.81712317 45.45255661 68.30414104 C47.18598498 66.84325718 48.94304028 65.93686389 51 65 C46.95164924 42.76105985 21.90550723 21.66885057 6.57055664 6.5546875 C4.37190581 4.37825217 2.18711594 2.1880191 0 0 Z " fill="#FEFDFE" transform="translate(335,46)"/>
<path d="M0 0 C7.59 -0.04125 15.18 -0.0825 23 -0.125 C25.38089844 -0.14320801 27.76179687 -0.16141602 30.21484375 -0.18017578 C32.12239355 -0.18602231 34.02994586 -0.19111749 35.9375 -0.1953125 C36.91138672 -0.20554443 37.88527344 -0.21577637 38.88867188 -0.22631836 C48.29795733 -0.22870408 57.77567669 1.2040712 64.953125 7.79296875 C71.0087103 14.37014858 73.45889618 20.30106365 73.40405273 29.23925781 C73.41091599 30.03215714 73.41777924 30.82505646 73.42485046 31.64198303 C73.44305085 34.24588274 73.43928931 36.84917572 73.43359375 39.453125 C73.43816016 41.27765089 73.44346709 43.10217507 73.44947815 44.92669678 C73.45839704 48.74628698 73.45600167 52.56566799 73.44604492 56.38525391 C73.43458144 61.25500093 73.45473262 66.12401997 73.48396206 70.99367142 C73.50240666 74.76176466 73.50201481 78.52968631 73.49632454 82.29781342 C73.4961722 84.09177417 73.50214345 85.88574721 73.51461601 87.67966461 C73.64812809 110.03730103 73.64812809 110.03730103 65.8125 118.9375 C57.18140166 126.6610365 47.18355443 127.15510382 36.1328125 127.09765625 C35.21491943 127.09664917 34.29702637 127.09564209 33.35131836 127.09460449 C29.94253275 127.08939659 26.53376504 127.0754354 23.125 127.0625 C15.49375 127.041875 7.8625 127.02125 0 127 C0 108.85 0 90.7 0 72 C-2.31 72 -4.62 72 -7 72 C-7 66.72 -7 61.44 -7 56 C-4.69 56 -2.38 56 0 56 C0 37.52 0 19.04 0 0 Z " fill="#FEFBFB" transform="translate(743,86)"/>
<path d="M0 0 C7.59 -0.04125 15.18 -0.0825 23 -0.125 C25.38089844 -0.14320801 27.76179687 -0.16141602 30.21484375 -0.18017578 C32.12239355 -0.18602231 34.02994586 -0.19111749 35.9375 -0.1953125 C36.91138672 -0.20554443 37.88527344 -0.21577637 38.88867188 -0.22631836 C48.29795733 -0.22870408 57.77567669 1.2040712 64.953125 7.79296875 C71.0087103 14.37014858 73.45889618 20.30106365 73.40405273 29.23925781 C73.41091599 30.03215714 73.41777924 30.82505646 73.42485046 31.64198303 C73.44305085 34.24588274 73.43928931 36.84917572 73.43359375 39.453125 C73.43816016 41.27765089 73.44346709 43.10217507 73.44947815 44.92669678 C73.45839704 48.74628698 73.45600167 52.56566799 73.44604492 56.38525391 C73.43458144 61.25500093 73.45473262 66.12401997 73.48396206 70.99367142 C73.50240666 74.76176466 73.50201481 78.52968631 73.49632454 82.29781342 C73.4961722 84.09177417 73.50214345 85.88574721 73.51461601 87.67966461 C73.64812809 110.03730103 73.64812809 110.03730103 65.8125 118.9375 C57.18140166 126.6610365 47.18355443 127.15510382 36.1328125 127.09765625 C35.21491943 127.09664917 34.29702637 127.09564209 33.35131836 127.09460449 C29.94253275 127.08939659 26.53376504 127.0754354 23.125 127.0625 C15.49375 127.041875 7.8625 127.02125 0 127 C0 108.85 0 90.7 0 72 C-2.31 72 -4.62 72 -7 72 C-7 66.72 -7 61.44 -7 56 C-4.69 56 -2.38 56 0 56 C0 37.52 0 19.04 0 0 Z " fill="#FEFBFB" transform="translate(534,86)"/>
<path d="M0 0 C10.23 0 20.46 0 31 0 C37.96428571 21.83035714 37.96428571 21.83035714 40 28.5 C41.79332997 34.36697177 43.64247454 40.21560551 45.5 46.0625 C45.78488281 46.96097656 46.06976562 47.85945313 46.36328125 48.78515625 C48.51524801 55.54567284 50.75589591 62.26768773 53 69 C53.33 46.23 53.66 23.46 54 0 C61.26 0 68.52 0 76 0 C76 41.91 76 83.82 76 127 C67.75 127 59.5 127 51 127 C47.3045176 117.81408662 44.34498732 108.64658828 41.62060547 99.14208984 C38.81595477 89.4615213 35.65265665 79.93117995 32.23950195 70.44995117 C29.92347721 63.94216876 27.97163148 57.34808373 26.078125 50.70703125 C25.13018198 47.44761846 24.07342292 44.22026877 23 41 C22.67 69.38 22.34 97.76 22 127 C14.74 127 7.48 127 0 127 C0 85.09 0 43.18 0 0 Z " fill="#FEFAFA" transform="translate(918,86)"/>
<path d="M0 0 C11.55 0 23.1 0 35 0 C36.4725423 4.4176269 37.5356223 8.29148152 38.375 12.81640625 C38.50029083 13.48475494 38.62558167 14.15310364 38.75466919 14.84170532 C39.17363165 17.08127033 39.5867153 19.32188089 40 21.5625 C40.30015898 23.17171664 40.60079144 24.78084502 40.90185547 26.38989258 C41.56749191 29.94938567 42.23107777 33.50925352 42.89355469 37.06933594 C44.73780789 46.96820165 46.60952808 56.86191331 48.47753906 66.75631714 C49.1056336 70.08486883 49.73265177 73.41362151 50.359375 76.74243164 C50.66038116 78.33948189 50.66038116 78.33948189 50.96746826 79.96879578 C51.36715924 82.0898753 51.76629473 84.21105958 52.16485596 86.33235168 C53.22429591 91.95530624 54.30625935 97.57297198 55.41699219 103.18603516 C55.76490311 104.95591545 55.76490311 104.95591545 56.11984253 106.7615509 C56.56520263 109.02249615 57.01509271 111.28255542 57.47024536 113.54154968 C57.67068451 114.56206924 57.87112366 115.58258881 58.07763672 116.6340332 C58.25608124 117.52758011 58.43452576 118.42112701 58.61837769 119.3417511 C59 122 59 122 59 128 C51.08 128 43.16 128 35 128 C33.02 116.615 33.02 116.615 31 105 C21.43 105 11.86 105 2 105 C1.67 107.97 1.34 110.94 1 114 C0.68707647 116.14890453 0.35655202 118.29540232 0 120.4375 C-0.165 121.44683594 -0.33 122.45617187 -0.5 123.49609375 C-1 126 -1 126 -2 128 C-9.26 128 -16.52 128 -24 128 C-22.49004428 116.23073404 -20.24221639 104.66402761 -17.9180603 93.03295898 C-16.78126148 87.34018872 -15.65762035 81.64483037 -14.53515625 75.94921875 C-14.31378494 74.82627411 -14.09241364 73.70332947 -13.86433411 72.5463562 C-12.0624405 63.37766595 -10.33892339 54.19689838 -8.6875 45 C-8.34150757 43.07426147 -8.34150757 43.07426147 -7.98852539 41.10961914 C-7.54505101 38.63407438 -7.10223864 36.15841091 -6.66015625 33.68261719 C-5.52077978 27.32671679 -4.35659249 20.9755002 -3.1875 14.625 C-2.98020264 13.48804687 -2.77290527 12.35109375 -2.55932617 11.1796875 C-2.36830322 10.14328125 -2.17728027 9.106875 -1.98046875 8.0390625 C-1.81442139 7.13365723 -1.64837402 6.22825195 -1.47729492 5.29541016 C-1 3 -1 3 0 0 Z " fill="#FEFAFA" transform="translate(640,85)"/>
<path d="M0 0 C11.55 0 23.1 0 35 0 C39.58325509 18.33302034 39.58325509 18.33302034 40.7890625 25.39453125 C40.93390076 26.21056824 41.07873901 27.02660522 41.22796631 27.86737061 C41.53751056 29.61164611 41.84485326 31.35631363 42.15008545 33.10134888 C42.98671658 37.87743636 43.84372591 42.64983862 44.703125 47.421875 C44.88406708 48.42662369 45.06500916 49.43137238 45.25143433 50.46656799 C47.89562663 65.05233637 50.79664046 79.58901681 53.67431641 94.13012695 C53.88074768 95.17388489 54.08717896 96.21764282 54.29986572 97.29302979 C54.68324467 99.2294707 55.06755724 101.16572716 55.45306396 103.10174561 C55.97508537 105.73329981 56.48943523 108.3662003 57 111 C57.18975403 111.96791473 57.37950806 112.93582947 57.57501221 113.93307495 C57.75860291 114.89738434 57.9421936 115.86169373 58.13134766 116.85522461 C58.38134018 118.15501503 58.38134018 118.15501503 58.63638306 119.48106384 C59 122 59 122 59 127 C51.08 127 43.16 127 35 127 C34.34 123.57625 33.68 120.1525 33 116.625 C32.79117188 115.54686035 32.58234375 114.4687207 32.3671875 113.35791016 C32.12355469 112.08633057 32.12355469 112.08633057 31.875 110.7890625 C31.62363281 109.48509521 31.62363281 109.48509521 31.3671875 108.15478516 C31 106 31 106 31 104 C21.43 104 11.86 104 2 104 C1.67 107.3 1.34 110.6 1 114 C0.13638113 118.37626559 -0.93922155 122.66464458 -2 127 C-8.93 127 -15.86 127 -23 127 C-23 118.00095887 -23 118.00095887 -22.26904297 114.39282227 C-22.10799072 113.57770172 -21.94693848 112.76258118 -21.78100586 111.92276001 C-21.51429077 110.6326149 -21.51429077 110.6326149 -21.2421875 109.31640625 C-21.05873779 108.39652924 -20.87528809 107.47665222 -20.6862793 106.52890015 C-20.29309387 104.56059921 -19.89657771 102.59296115 -19.49700928 100.62594604 C-18.44059951 95.42304244 -17.40937295 90.21513354 -16.375 85.0078125 C-16.1683371 83.97077682 -15.96167419 82.93374115 -15.74874878 81.86528015 C-14.03395769 73.23809819 -12.42433397 64.59573334 -10.875 55.9375 C-10.41056041 53.35018784 -9.94571424 50.76294862 -9.48046875 48.17578125 C-9.36487106 47.532957 -9.24927338 46.89013275 -9.13017273 46.22782898 C-7.68049438 38.19187247 -6.1750742 30.16633444 -4.66192627 22.14212036 C-4.34810889 20.47712798 -4.03506735 18.81198916 -3.72283936 17.146698 C-3.29004321 14.83957242 -2.85444683 12.53299396 -2.41796875 10.2265625 C-2.28908768 9.53761398 -2.1602066 8.84866547 -2.02742004 8.13883972 C-1.495108 5.34250071 -0.90175756 2.70527267 0 0 Z " fill="#FEFCFC" transform="translate(848,86)"/>
<path d="M0 0 C7.92 0 15.84 0 24 0 C24.495 26.235 24.495 26.235 25 53 C26.8975 49.473125 28.795 45.94625 30.75 42.3125 C35.2460983 33.99128601 39.80801022 25.71247164 44.5 17.5 C44.97920898 16.65993408 45.45841797 15.81986816 45.95214844 14.9543457 C46.85963935 13.37419705 47.78164932 11.80227231 48.7199707 10.24023438 C50.04052488 8.02375774 50.04052488 8.02375774 51.02026367 5.65039062 C52.14706221 3.28455742 53.02430686 1.73108351 55 0 C59.14278908 -0.97729689 63.08622896 -0.75688614 67.3125 -0.5 C68.99569336 -0.44585937 68.99569336 -0.44585937 70.71289062 -0.390625 C73.47874621 -0.29646821 76.23762241 -0.16512661 79 0 C74.86176882 7.66835608 70.60690292 15.26428882 66.27694702 22.82592773 C65.22697261 24.66534086 64.18480164 26.50901232 63.14379883 28.35351562 C60.0969031 33.73332492 57.03498941 39.060373 53.55859375 44.1796875 C53.06649414 44.92524902 52.57439453 45.67081055 52.06738281 46.43896484 C51.1834175 47.75928247 50.26447147 49.05722141 49.30371094 50.32275391 C47.99761226 52.30485429 47.3411975 53.64420536 47 56 C48.0314169 60.29791712 50.02380481 64.06468138 52 68 C52.6244684 69.32499237 53.24413629 70.65225517 53.85961914 71.98144531 C55.5747516 75.67839306 57.31942283 79.3604274 59.07376099 83.03890991 C60.96495565 87.00572894 62.84594703 90.97737576 64.7265625 94.94921875 C65.09574295 95.72870377 65.4649234 96.50818878 65.84529114 97.31129456 C68.96820775 103.91391172 72.03960864 110.5383865 75.0625 117.1875 C75.47330811 118.08839355 75.88411621 118.98928711 76.30737305 119.91748047 C79 125.87023069 79 125.87023069 79 127 C70.75 127 62.5 127 54 127 C52.75863281 124.30070312 51.51726562 121.60140625 50.23828125 118.8203125 C49.02065396 116.17560126 47.80246742 113.53114831 46.58422852 110.88671875 C45.74477758 109.06374525 44.90589855 107.24050829 44.06762695 105.41699219 C37.74766724 91.60559345 37.74766724 91.60559345 31 78 C24.59647225 84.22422897 24.30986439 90.87448641 24.14227295 99.29330444 C24.11681607 102.04998738 24.12018172 104.80571996 24.125 107.5625 C24.10685356 109.44859547 24.08604479 111.33466732 24.0625 113.22070312 C24.00595673 117.81484401 24.00425722 122.40433353 24 127 C16.08 127 8.16 127 0 127 C0 85.09 0 43.18 0 0 Z " fill="#FEFBFB" transform="translate(1128,86)"/>
<path d="M0 0 C6.20324676 4.10879259 9.42051298 9.74982019 11.7421875 16.71484375 C11.82396864 18.41501219 11.84968251 20.11820672 11.83984375 21.8203125 C11.83734619 22.70614014 11.83484863 23.59196777 11.83227539 24.50463867 C11.82317139 25.62588135 11.81406738 26.74712402 11.8046875 27.90234375 C11.7840625 31.47046875 11.7634375 35.03859375 11.7421875 38.71484375 C4.4821875 38.71484375 -2.7778125 38.71484375 -10.2578125 38.71484375 C-10.5703125 30.02734375 -10.5703125 30.02734375 -10.64575195 27.31762695 C-10.85759304 22.72155152 -11.19584553 19.37939461 -14.2578125 15.71484375 C-18.28807242 12.9867946 -22.56103967 13.16968262 -27.2578125 13.71484375 C-30.11357632 14.9300624 -31.64245163 15.8010465 -33.36955261 18.36575317 C-34.58702249 21.58547192 -34.54471298 24.65619526 -34.5324707 28.05029297 C-34.53758163 28.78251068 -34.54269257 29.51472839 -34.54795837 30.26913452 C-34.56184087 32.68601695 -34.56089845 35.10261373 -34.55859375 37.51953125 C-34.56248182 39.20338039 -34.56681672 40.88722855 -34.57157898 42.57107544 C-34.57903859 46.09998758 -34.57875209 49.62879967 -34.57348633 53.15771484 C-34.56769623 57.672568 -34.58461266 62.18701032 -34.607831 66.70179558 C-34.62258832 70.1797219 -34.62343726 73.65754978 -34.62032127 77.13550186 C-34.62083362 78.79962095 -34.6260551 80.46374567 -34.63613319 82.12783432 C-34.64851739 84.45902659 -34.6416943 86.78942519 -34.63012695 89.12060547 C-34.63777069 89.80340576 -34.64541443 90.48620605 -34.65328979 91.18969727 C-34.60356135 95.74079567 -33.60988805 98.83292443 -31.2578125 102.71484375 C-28.3011365 105.12398715 -25.02944557 105.07649698 -21.2890625 104.96484375 C-18.08026887 104.5699153 -15.90306928 103.54133057 -13.2578125 101.71484375 C-11.2965841 97.90050271 -10.96467805 94.5729491 -10.84375 90.3203125 C-10.78574219 88.51723633 -10.78574219 88.51723633 -10.7265625 86.67773438 C-10.695625 85.43185547 -10.6646875 84.18597656 -10.6328125 82.90234375 C-10.59414062 81.63712891 -10.55546875 80.37191406 -10.515625 79.06835938 C-10.42150593 75.95066524 -10.33586889 72.83297461 -10.2578125 69.71484375 C-13.8878125 69.71484375 -17.5178125 69.71484375 -21.2578125 69.71484375 C-21.2578125 63.77484375 -21.2578125 57.83484375 -21.2578125 51.71484375 C-10.3678125 51.71484375 0.5221875 51.71484375 11.7421875 51.71484375 C11.83445027 58.35007494 11.91396029 64.98304459 11.96191406 71.6184082 C11.98192214 73.87141498 12.00913741 76.12437054 12.04394531 78.37719727 C12.09294092 81.63180242 12.11526506 84.88571592 12.1328125 88.140625 C12.15345764 89.13379227 12.17410278 90.12695953 12.19537354 91.15022278 C12.19794349 99.31767522 10.50356666 107.39058769 5.5546875 114.08984375 C-4.24083868 123.23233486 -15.47797907 124.28741834 -28.28515625 124.0234375 C-37.60654778 123.59981778 -44.97197919 120.99518362 -51.70703125 114.44140625 C-57.28002644 108.23671136 -58.55806555 101.51922236 -58.54833984 93.3737793 C-58.55505707 92.55830627 -58.56177429 91.74283325 -58.56869507 90.90264893 C-58.58762221 88.21889068 -58.59159666 85.53538325 -58.59375 82.8515625 C-58.60018187 80.97597656 -58.60691052 79.10039161 -58.61392212 77.22480774 C-58.62588187 73.29673946 -58.62960431 69.36875903 -58.62841797 65.44067383 C-58.62821492 60.4238902 -58.65550865 55.40767391 -58.68996239 50.39102459 C-58.7122742 46.51751655 -58.71625419 42.64414409 -58.71519852 38.77057838 C-58.71754835 36.92192443 -58.72633684 35.07326638 -58.74186325 33.22467613 C-58.83412603 21.10465939 -58.56040952 11.57670625 -49.95703125 2.21484375 C-37.0590744 -9.17093885 -14.0823859 -8.01575253 0 0 Z " fill="#FEFDFD" transform="translate(1067.2578125,90.28515625)"/>
<path d="M0 0 C247.5 0 495 0 750 0 C750 2.31 750 4.62 750 7 C502.5 7 255 7 0 7 C0 4.69 0 2.38 0 0 Z " fill="#FFFFFF" transform="translate(536,239)"/>
<path d="M0 0 C8.25 0 16.5 0 25 0 C29.90926721 14.54928283 34.65064797 29.12538688 39.11694336 43.81518555 C39.47925049 44.99894775 39.84155762 46.18270996 40.21484375 47.40234375 C40.53573975 48.45929443 40.85663574 49.51624512 41.18725586 50.60522461 C41.77771197 52.92516085 41.77771197 52.92516085 43 54 C43.50765901 52.37549118 44.01531354 50.75098096 44.52294922 49.12646484 C44.97372176 47.68405896 45.4245706 46.24167692 45.87548828 44.79931641 C46.9851232 41.24955825 48.09399092 37.69957052 49.19921875 34.1484375 C52.75088974 22.75005153 56.37420617 11.37503945 60 0 C67.59 0 75.18 0 83 0 C80.97804998 7.41381674 78.86024055 14.562879 76.26953125 21.765625 C75.91541672 22.76092224 75.56130219 23.75621948 75.19645691 24.78167725 C74.07226908 27.93915443 72.94263451 31.094647 71.8125 34.25 C71.07447683 36.31756811 70.33684406 38.38527561 69.59960938 40.453125 C69.23535858 41.47346329 68.87110779 42.49380157 68.49581909 43.5450592 C67.7592425 45.61547279 67.0266196 47.68729705 66.29788208 49.76048279 C64.51529819 54.82147572 62.68260899 59.84566349 60.70068359 64.83227539 C55.28600288 78.76254777 53.84621122 91.0578251 54 105.9375 C53.99187537 108.00066833 53.98016844 110.06382572 53.96484375 112.12695312 C53.92906146 117.08677664 53.96567742 122.0382417 54 127 C46.08 127 38.16 127 30 127 C30.22236328 123.28363281 30.22236328 123.28363281 30.44921875 119.4921875 C31.65680664 88.98688482 23.43373739 64.05072884 12.32226562 35.92431641 C9.29921926 28.26403968 6.5447711 20.51746387 3.8125 12.75 C3.40974854 11.63890869 3.00699707 10.52781738 2.59204102 9.38305664 C2.23811279 8.4058667 1.88418457 7.42867676 1.51953125 6.421875 C1.22151611 5.60299805 0.92350098 4.78412109 0.61645508 3.94042969 C0 2 0 2 0 0 Z " fill="#FEFCFC" transform="translate(1210,86)"/>
<path d="M0 0 C2.31 0 4.62 0 7 0 C7.42273372 6.12963887 7.02168763 9.05906948 3 14 C2.505 14.61875 2.01 15.2375 1.5 15.875 C0 17 0 17 -4 17 C-3.525625 17.9075 -3.05125 18.815 -2.5625 19.75 C0.37079437 25.85125229 0.24907464 31.44419577 0.3125 38.125 C0.34150391 39.12015625 0.37050781 40.1153125 0.40039062 41.140625 C0.47270146 49.6621784 -1.53000907 56.14972002 -6.125 63.3125 C-11.67316457 68.49882775 -17.35247947 71.27067472 -25 71.625 C-32.65762877 71.26081971 -38.99472577 68.42537971 -44.375 62.9375 C-51.72427814 53.16630065 -52.31976289 40.74172202 -51 29 C-49.20813645 20.77850843 -45.61053557 13.74400704 -38.875 8.625 C-32.16947185 4.83491887 -24.48498373 5.29874413 -17 6 C-14.55010892 7.09171883 -12.77256225 8.29683817 -10.68359375 9.953125 C-8.56283288 11.27183478 -7.43959743 11.17964734 -5 10.8125 C-4.01 10.544375 -3.02 10.27625 -2 10 C-1.34 6.7 -0.68 3.4 0 0 Z " fill="#FCF5F5" transform="translate(1163,270)"/>
<path d="M0 0 C31.28947368 0 31.28947368 0 37.9375 5.375 C41.39901728 9.78056745 42.47037801 13.32676093 42.3203125 19.0078125 C41.62458201 23.33491678 39.01087578 26.15760352 35.75 28.875 C34.88375 29.431875 34.88375 29.431875 34 30 C34.48210938 30.38671875 34.96421875 30.7734375 35.4609375 31.171875 C36.09257813 31.69265625 36.72421875 32.2134375 37.375 32.75 C38.00148438 33.26046875 38.62796875 33.7709375 39.2734375 34.296875 C42.63821914 37.61598087 43.30853084 40.59715904 43.375 45.25 C43.26030545 50.61913847 42.30192209 54.70547557 39 59 C27.59588348 68.26584468 15.54334169 64 0 64 C0 42.88 0 21.76 0 0 Z " fill="#FCF5F5" transform="translate(536,276)"/>
<path d="M0 0 C17 0 17 0 23 3 C25.41968121 6.62952181 25.30252278 9.31664535 25.30639648 13.51318359 C25.31472 14.27612228 25.32304352 15.03906097 25.33161926 15.82511902 C25.35573311 18.34961029 25.36449298 20.87384324 25.37109375 23.3984375 C25.38005906 25.15337197 25.38918089 26.90830565 25.39845276 28.66323853 C25.41494908 32.34354511 25.42264403 36.02376065 25.42553711 39.70410156 C25.43092153 44.4177062 25.46860072 49.13045409 25.51428127 53.84381676 C25.54403911 57.46925981 25.55126038 61.09449624 25.55226326 64.72005081 C25.55646815 66.45759632 25.56891331 68.19514231 25.58978081 69.9325676 C25.61667007 72.36502632 25.6118786 74.79549537 25.59936523 77.22802734 C25.61419952 77.94404617 25.62903381 78.660065 25.64431763 79.39778137 C25.58784906 83.25689362 25.09873937 84.87717253 22.65003967 87.92324829 C15.48059 93.54171771 10.91955071 91 0 91 C0 78.79 0 66.58 0 54 C4.95 54 9.9 54 15 54 C15 48.72 15 43.44 15 38 C10.05 38 5.1 38 0 38 C0 25.46 0 12.92 0 0 Z " fill="#DA2C31" transform="translate(767,104)"/>
<path d="M0 0 C17 0 17 0 23 3 C25.41968121 6.62952181 25.30252278 9.31664535 25.30639648 13.51318359 C25.31472 14.27612228 25.32304352 15.03906097 25.33161926 15.82511902 C25.35573311 18.34961029 25.36449298 20.87384324 25.37109375 23.3984375 C25.38005906 25.15337197 25.38918089 26.90830565 25.39845276 28.66323853 C25.41494908 32.34354511 25.42264403 36.02376065 25.42553711 39.70410156 C25.43092153 44.4177062 25.46860072 49.13045409 25.51428127 53.84381676 C25.54403911 57.46925981 25.55126038 61.09449624 25.55226326 64.72005081 C25.55646815 66.45759632 25.56891331 68.19514231 25.58978081 69.9325676 C25.61667007 72.36502632 25.6118786 74.79549537 25.59936523 77.22802734 C25.61419952 77.94404617 25.62903381 78.660065 25.64431763 79.39778137 C25.58784906 83.25689362 25.09873937 84.87717253 22.65003967 87.92324829 C15.48059 93.54171771 10.91955071 91 0 91 C0 78.79 0 66.58 0 54 C4.95 54 9.9 54 15 54 C15 48.72 15 43.44 15 38 C10.05 38 5.1 38 0 38 C0 25.46 0 12.92 0 0 Z " fill="#DA2C31" transform="translate(558,104)"/>
<path d="M0 0 C9 0 9 0 11.04052734 1.56616211 C11.4680127 2.29585205 11.89549805 3.02554199 12.3359375 3.77734375 C12.83730225 4.59291748 13.33866699 5.40849121 13.85522461 6.2487793 C14.60751343 7.57969604 14.60751343 7.57969604 15.375 8.9375 C16.48791436 10.77626378 17.60120212 12.6148016 18.71484375 14.453125 C19.26253418 15.38318359 19.81022461 16.31324219 20.37451172 17.27148438 C22.78449847 21.31684514 25.3579646 25.24901396 27.9375 29.1875 C28.78040902 30.49319203 29.6228721 31.79917207 30.46484375 33.10546875 C33.27686745 37.42532642 36.14080982 41.71121473 39 46 C39.33 30.82 39.66 15.64 40 0 C42.97 0 45.94 0 49 0 C49 21.12 49 42.24 49 64 C40 64 40 64 37.62402344 61.93066406 C37.04168945 60.96870117 36.45935547 60.00673828 35.859375 59.015625 C34.85088501 57.4076001 34.85088501 57.4076001 33.82202148 55.76708984 C33.1308287 54.59503245 32.44016528 53.42266273 31.75 52.25 C31.0215411 51.06652755 30.28981924 49.88505766 29.55493164 48.70556641 C28.06822556 46.31206941 26.59776077 43.90974374 25.13916016 41.49902344 C22.02793269 36.37823059 18.72566743 31.38313852 15.4375 26.375 C13.643125 23.61125 11.84875 20.8475 10 18 C9.67 33.18 9.34 48.36 9 64 C6.03 64 3.06 64 0 64 C0 42.88 0 21.76 0 0 Z " fill="#FCF4F4" transform="translate(1176,276)"/>
<path d="M0 0 C9 0 9 0 11.04052734 1.56616211 C11.4680127 2.29585205 11.89549805 3.02554199 12.3359375 3.77734375 C12.83730225 4.59291748 13.33866699 5.40849121 13.85522461 6.2487793 C14.60751343 7.57969604 14.60751343 7.57969604 15.375 8.9375 C16.48791436 10.77626378 17.60120212 12.6148016 18.71484375 14.453125 C19.26253418 15.38318359 19.81022461 16.31324219 20.37451172 17.27148438 C22.78449847 21.31684514 25.3579646 25.24901396 27.9375 29.1875 C28.78040902 30.49319203 29.6228721 31.79917207 30.46484375 33.10546875 C33.27686745 37.42532642 36.14080982 41.71121473 39 46 C39.33 30.82 39.66 15.64 40 0 C42.97 0 45.94 0 49 0 C49 21.12 49 42.24 49 64 C40 64 40 64 37.62402344 61.93066406 C37.04168945 60.96870117 36.45935547 60.00673828 35.859375 59.015625 C34.85088501 57.4076001 34.85088501 57.4076001 33.82202148 55.76708984 C33.1308287 54.59503245 32.44016528 53.42266273 31.75 52.25 C31.0215411 51.06652755 30.28981924 49.88505766 29.55493164 48.70556641 C28.06822556 46.31206941 26.59776077 43.90974374 25.13916016 41.49902344 C22.02793269 36.37823059 18.72566743 31.38313852 15.4375 26.375 C13.643125 23.61125 11.84875 20.8475 10 18 C9.67 33.18 9.34 48.36 9 64 C6.03 64 3.06 64 0 64 C0 42.88 0 21.76 0 0 Z " fill="#FCF4F4" transform="translate(793,276)"/>
<path d="M0 0 C5.18479602 1.76087412 7.86460732 4.5581937 11 9 C14.77399816 17.85438029 14.66548499 30.88845723 11.3125 39.875 C9.15249241 44.27957064 6.46835978 47.76582011 2 50 C-3.48320778 50.50071209 -8.39459862 50.68802916 -13.5 48.5 C-20.08517584 41.91482416 -21.22084848 34.23742118 -21.25 25.3125 C-21.2216325 16.40776536 -20.93951929 9.5840086 -14.4375 2.9375 C-9.81007609 -0.73546447 -5.70470454 -1.03547578 0 0 Z " fill="#DA2A2F" transform="translate(1142,283)"/>
<path d="M0 0 C5.1184821 3.69006849 7.64568601 7.75141249 8.6875 13.9375 C8.92123327 17.37302499 8.91828014 20.80724309 8.9375 24.25 C8.958125 25.16201172 8.97875 26.07402344 9 27.01367188 C9.04219911 34.37214156 8.10701409 40.09457094 3.1875 45.875 C-1.69599014 49.90387936 -7.2568655 49.42657474 -13.3125 48.9375 C-18.20896124 46.9580795 -21.17554553 43.36266336 -23.40258789 38.61230469 C-25.00452732 33.90319592 -24.72306695 29.11924008 -24.75 24.1875 C-24.78287109 23.14078125 -24.81574219 22.0940625 -24.84960938 21.015625 C-24.89914145 13.81096008 -23.67119681 8.75094759 -19.3125 2.9375 C-13.69869625 -2.41519659 -7.07926786 -2.27070856 0 0 Z " fill="#DA292E" transform="translate(763.3125,284.0625)"/>
<path d="M0 0 C5.1184821 3.69006849 7.64568601 7.75141249 8.6875 13.9375 C8.92123327 17.37302499 8.91828014 20.80724309 8.9375 24.25 C8.958125 25.16201172 8.97875 26.07402344 9 27.01367188 C9.04219911 34.37214156 8.10701409 40.09457094 3.1875 45.875 C-1.69599014 49.90387936 -7.2568655 49.42657474 -13.3125 48.9375 C-18.20896124 46.9580795 -21.17554553 43.36266336 -23.40258789 38.61230469 C-25.00452732 33.90319592 -24.72306695 29.11924008 -24.75 24.1875 C-24.78287109 23.14078125 -24.81574219 22.0940625 -24.84960938 21.015625 C-24.89914145 13.81096008 -23.67119681 8.75094759 -19.3125 2.9375 C-13.69869625 -2.41519659 -7.07926786 -2.27070856 0 0 Z " fill="#DA292E" transform="translate(622.3125,284.0625)"/>
<path d="M0 0 C2.97 0 5.94 0 9 0 C9 8.91 9 17.82 9 27 C19.23 27 29.46 27 40 27 C40 18.09 40 9.18 40 0 C42.97 0 45.94 0 49 0 C49 21.12 49 42.24 49 64 C46.03 64 43.06 64 40 64 C40 54.43 40 44.86 40 35 C29.77 35 19.54 35 9 35 C9 44.57 9 54.14 9 64 C6.03 64 3.06 64 0 64 C0 42.88 0 21.76 0 0 Z " fill="#FBF0F0" transform="translate(990,276)"/>
<path d="M0 0 C2.31 0 4.62 0 7 0 C7.28944223 5.59588314 7.20887163 9.18669255 4 14 C0.67473067 17.47641794 -0.83094054 18.95807171 -5.703125 19.1328125 C-7.33507813 19.06707031 -7.33507813 19.06707031 -9 19 C-8.97905273 19.98806641 -8.95810547 20.97613281 -8.93652344 21.99414062 C-8.86362992 25.69158191 -8.81802306 29.38896087 -8.78027344 33.08691406 C-8.76026947 34.68142408 -8.73305699 36.27586178 -8.69824219 37.87011719 C-8.32378341 55.46967992 -8.32378341 55.46967992 -14.7109375 63.0234375 C-15.26007813 63.46945312 -15.80921875 63.91546875 -16.375 64.375 C-17.19097656 65.06722656 -17.19097656 65.06722656 -18.0234375 65.7734375 C-24.47353051 69.77606439 -31.66140052 69.82688445 -39 69 C-46.13558735 66.84003842 -50.36723327 63.44523129 -54 57 C-54.97658172 53.96951202 -55.12170618 51.22199881 -55.11352539 48.04785156 C-55.11344986 47.06713684 -55.11337433 46.08642212 -55.11329651 45.07598877 C-55.10813522 44.02481873 -55.10297394 42.97364868 -55.09765625 41.890625 C-55.0962413 40.80867859 -55.09482635 39.72673218 -55.09336853 38.61199951 C-55.08777318 35.1579715 -55.0752215 31.70400841 -55.0625 28.25 C-55.0574844 25.90755302 -55.0529216 23.56510502 -55.04882812 21.22265625 C-55.03780528 15.4817487 -55.02107174 9.74087899 -55 4 C-52.36 4 -49.72 4 -47 4 C-46.99413376 4.57549591 -46.98826752 5.15099182 -46.98222351 5.743927 C-46.91817164 11.74659712 -46.83372168 17.74873695 -46.73754883 23.75097656 C-46.70434334 25.98951211 -46.67629784 28.22813049 -46.65356445 30.46679688 C-46.61993855 33.68916039 -46.56761728 36.91076774 -46.51171875 40.1328125 C-46.50532883 41.12991241 -46.4989389 42.12701233 -46.49235535 43.15432739 C-46.36096651 49.39728603 -45.55209909 53.78213592 -41.5625 58.8125 C-37.58877989 61.83252728 -31.75034212 61.60099649 -27 61 C-22.91227621 58.91897698 -20.68215757 57.24345786 -19 53 C-18.67620151 50.61950787 -18.67620151 50.61950787 -18.68115234 48.04785156 C-18.66128265 47.06713684 -18.64141296 46.08642212 -18.62094116 45.07598877 C-18.60361435 43.4992337 -18.60361435 43.4992337 -18.5859375 41.890625 C-18.56657135 40.80867859 -18.5472052 39.72673218 -18.5272522 38.61199951 C-18.46749763 35.15807974 -18.42108703 31.70412656 -18.375 28.25 C-18.33681647 25.90753759 -18.29776452 23.56508916 -18.2578125 21.22265625 C-18.16179927 15.48188447 -18.07775256 9.74104697 -18 4 C-15.03 4 -12.06 4 -9 4 C-9 6.97 -9 9.94 -9 13 C-5.09839108 11.73461332 -2.97581195 10.65525211 -1 7 C-0.27518916 3.34725531 -0.27518916 3.34725531 0 0 Z " fill="#FCF5F5" transform="translate(1107,272)"/>
<path d="M0 0 C6.06731933 4.62583958 9.52429855 11.42513462 11.12109375 18.81640625 C12.21979817 31.279503 11.09322289 42.01400973 5.37109375 53.25390625 C1.18161466 58.02525744 -4.31820721 61.51927541 -10.734375 62.0546875 C-19.02413178 62.23933624 -24.514602 61.7137479 -30.77734375 56.12109375 C-39.23420251 47.3074055 -40.46620296 38.39248816 -40.35180664 26.58081055 C-40.04127282 17.14613667 -38.16561516 9.26212173 -31.5234375 2.25 C-22.27504449 -5.81213832 -10.2809139 -6.47633454 0 0 Z M-26.87890625 8.81640625 C-31.36251876 15.0682305 -31.48987212 21.3447041 -31.37890625 28.81640625 C-31.394375 29.85796875 -31.40984375 30.89953125 -31.42578125 31.97265625 C-31.38607042 39.83540104 -29.99909824 45.12890662 -24.81640625 51.25390625 C-20.28104909 54.91145235 -14.40825296 54.2629761 -8.87890625 53.81640625 C-3.89892823 51.80322365 -0.91581931 48.19281909 1.21875 43.30078125 C2.43252807 38.61381139 2.4116298 34.19931848 2.37109375 29.37890625 C2.37882813 28.46302734 2.3865625 27.54714844 2.39453125 26.60351562 C2.37000658 18.06279834 1.30777269 12.00308519 -4.87890625 5.81640625 C-12.14025232 1.25213158 -21.14639547 2.87455724 -26.87890625 8.81640625 Z " fill="#FCF3F4" transform="translate(769.87890625,279.18359375)"/>
<path d="M0 0 C6.06731933 4.62583958 9.52429855 11.42513462 11.12109375 18.81640625 C12.21979817 31.279503 11.09322289 42.01400973 5.37109375 53.25390625 C1.18161466 58.02525744 -4.31820721 61.51927541 -10.734375 62.0546875 C-19.02413178 62.23933624 -24.514602 61.7137479 -30.77734375 56.12109375 C-39.23420251 47.3074055 -40.46620296 38.39248816 -40.35180664 26.58081055 C-40.04127282 17.14613667 -38.16561516 9.26212173 -31.5234375 2.25 C-22.27504449 -5.81213832 -10.2809139 -6.47633454 0 0 Z M-26.87890625 8.81640625 C-31.36251876 15.0682305 -31.48987212 21.3447041 -31.37890625 28.81640625 C-31.394375 29.85796875 -31.40984375 30.89953125 -31.42578125 31.97265625 C-31.38607042 39.83540104 -29.99909824 45.12890662 -24.81640625 51.25390625 C-20.28104909 54.91145235 -14.40825296 54.2629761 -8.87890625 53.81640625 C-3.89892823 51.80322365 -0.91581931 48.19281909 1.21875 43.30078125 C2.43252807 38.61381139 2.4116298 34.19931848 2.37109375 29.37890625 C2.37882813 28.46302734 2.3865625 27.54714844 2.39453125 26.60351562 C2.37000658 18.06279834 1.30777269 12.00308519 -4.87890625 5.81640625 C-12.14025232 1.25213158 -21.14639547 2.87455724 -26.87890625 8.81640625 Z " fill="#FCF3F4" transform="translate(628.87890625,279.18359375)"/>
<path d="M0 0 C5.39129785 3.24383971 8.87873478 8.06575567 11.01171875 13.9609375 C11.01171875 15.2809375 11.01171875 16.6009375 11.01171875 17.9609375 C8.04171875 17.9609375 5.07171875 17.9609375 2.01171875 17.9609375 C1.57859375 16.8678125 1.14546875 15.7746875 0.69921875 14.6484375 C-0.49507224 11.87297252 -1.51933774 9.81264513 -3.98828125 7.9609375 C-9.20740346 6.2212301 -15.85008142 5.60469998 -21.00390625 7.83203125 C-24.73448094 10.70532741 -26.70632458 14.5319392 -27.98828125 18.9609375 C-28.40392763 22.42961813 -28.40815088 25.84607726 -28.36328125 29.3359375 C-28.37488281 30.23054688 -28.38648438 31.12515625 -28.3984375 32.046875 C-28.36621193 39.4372721 -27.3473413 46.0431527 -22.61328125 51.8984375 C-17.78637999 55.69100278 -14.10676625 56.45436371 -7.98828125 55.9609375 C-4.26988622 55.09281018 -0.6529075 54.04675269 3.01171875 52.9609375 C3.01171875 48.0109375 3.01171875 43.0609375 3.01171875 37.9609375 C-1.93828125 37.9609375 -6.88828125 37.9609375 -11.98828125 37.9609375 C-11.98828125 35.6509375 -11.98828125 33.3409375 -11.98828125 30.9609375 C-4.39828125 30.9609375 3.19171875 30.9609375 11.01171875 30.9609375 C11.14671847 34.85792937 11.24585185 38.75024403 11.32421875 42.6484375 C11.36611328 43.75123047 11.40800781 44.85402344 11.45117188 45.99023438 C11.57500503 54.18798892 11.57500503 54.18798892 8.734375 58.0859375 C7.38666016 59.0140625 7.38666016 59.0140625 6.01171875 59.9609375 C5.05652344 60.63576172 5.05652344 60.63576172 4.08203125 61.32421875 C-3.68429907 65.11381367 -12.6968697 65.53030628 -20.96484375 63.078125 C-28.45403257 59.66160684 -33.00563928 54.72320561 -36.36328125 47.2734375 C-39.89946223 36.59091589 -39.99503836 21.17715444 -34.98828125 10.9609375 C-32.45279636 5.94962618 -29.0130392 2.39096252 -23.9765625 -0.1484375 C-16.43285691 -2.3967576 -7.46615592 -2.59607513 0 0 Z " fill="#FDF5F5" transform="translate(1275.98828125,277.0390625)"/>
<path d="M0 0 C5.39129785 3.24383971 8.87873478 8.06575567 11.01171875 13.9609375 C11.01171875 15.2809375 11.01171875 16.6009375 11.01171875 17.9609375 C8.04171875 17.9609375 5.07171875 17.9609375 2.01171875 17.9609375 C1.57859375 16.8678125 1.14546875 15.7746875 0.69921875 14.6484375 C-0.49507224 11.87297252 -1.51933774 9.81264513 -3.98828125 7.9609375 C-9.20740346 6.2212301 -15.85008142 5.60469998 -21.00390625 7.83203125 C-24.73448094 10.70532741 -26.70632458 14.5319392 -27.98828125 18.9609375 C-28.40392763 22.42961813 -28.40815088 25.84607726 -28.36328125 29.3359375 C-28.37488281 30.23054688 -28.38648438 31.12515625 -28.3984375 32.046875 C-28.36621193 39.4372721 -27.3473413 46.0431527 -22.61328125 51.8984375 C-17.78637999 55.69100278 -14.10676625 56.45436371 -7.98828125 55.9609375 C-4.26988622 55.09281018 -0.6529075 54.04675269 3.01171875 52.9609375 C3.01171875 48.0109375 3.01171875 43.0609375 3.01171875 37.9609375 C-1.93828125 37.9609375 -6.88828125 37.9609375 -11.98828125 37.9609375 C-11.98828125 35.6509375 -11.98828125 33.3409375 -11.98828125 30.9609375 C-4.39828125 30.9609375 3.19171875 30.9609375 11.01171875 30.9609375 C11.14671847 34.85792937 11.24585185 38.75024403 11.32421875 42.6484375 C11.36611328 43.75123047 11.40800781 44.85402344 11.45117188 45.99023438 C11.57500503 54.18798892 11.57500503 54.18798892 8.734375 58.0859375 C7.38666016 59.0140625 7.38666016 59.0140625 6.01171875 59.9609375 C5.05652344 60.63576172 5.05652344 60.63576172 4.08203125 61.32421875 C-3.68429907 65.11381367 -12.6968697 65.53030628 -20.96484375 63.078125 C-28.45403257 59.66160684 -33.00563928 54.72320561 -36.36328125 47.2734375 C-39.89946223 36.59091589 -39.99503836 21.17715444 -34.98828125 10.9609375 C-32.45279636 5.94962618 -29.0130392 2.39096252 -23.9765625 -0.1484375 C-16.43285691 -2.3967576 -7.46615592 -2.59607513 0 0 Z " fill="#FDF5F5" transform="translate(891.98828125,277.0390625)"/>
<path d="M0 0 C0.75369873 0.00427002 1.50739746 0.00854004 2.28393555 0.01293945 C9.79447196 0.24344393 13.76234394 2.55997486 18.9375 7.875 C21.83713544 12.38554402 23.625 16.09861482 23.625 21.5 C20.655 21.5 17.685 21.5 14.625 21.5 C14.44324219 20.88511719 14.26148438 20.27023437 14.07421875 19.63671875 C13.82285156 18.82847656 13.57148437 18.02023437 13.3125 17.1875 C13.06886719 16.38699219 12.82523438 15.58648437 12.57421875 14.76171875 C11.56144577 12.34856832 10.65464958 11.12873114 8.625 9.5 C3.37304191 7.7493473 -3.15782371 7.22185826 -8.390625 9.30078125 C-12.85106827 12.57853123 -14.14028629 17.36789844 -15.375 22.5 C-15.7910687 25.99141749 -15.85211382 29.42400995 -15.8125 32.9375 C-15.80637695 33.85966309 -15.80025391 34.78182617 -15.79394531 35.73193359 C-15.64783966 42.07629066 -15.22637852 48.19841105 -11.375 53.5 C-7.16974925 57.34887356 -2.90335253 57.59130913 2.625 57.5 C5.80479295 57.13644006 8.11326244 56.5255948 10.625 54.5 C12.44932964 51.29453945 13.61560872 48.03951021 14.625 44.5 C17.265 44.5 19.905 44.5 22.625 44.5 C22.35603369 50.55174197 21.71593541 54.74566965 17.625 59.5 C9.96016266 65.37093924 3.13110312 66.55009279 -6.375 65.5 C-13.83535853 63.30877448 -18.64822808 59.24759769 -22.375 52.5 C-25.07343787 45.71841902 -25.89703228 39.25446697 -25.8125 32 C-25.80005249 30.61808472 -25.80005249 30.61808472 -25.78735352 29.20825195 C-25.53695118 19.16631611 -22.99424191 12.73131961 -16.3515625 5.19140625 C-11.23231787 0.81070877 -6.49106191 -0.05527057 0 0 Z " fill="#FCF4F4" transform="translate(697.375,275.5)"/>
<path d="M0 0 C16.17 0 32.34 0 49 0 C49 2.31 49 4.62 49 7 C42.4 7 35.8 7 29 7 C29 25.81 29 44.62 29 64 C26.03 64 23.06 64 20 64 C20 45.19 20 26.38 20 7 C13.4 7 6.8 7 0 7 C0 4.69 0 2.38 0 0 Z " fill="#FDF6F7" transform="translate(932,276)"/>
<path d="M0 0 C4.9906078 2.16413702 9.7244771 3.05168078 15.125 2 C16.48055358 1.03033394 17.81714343 0.03309679 19.125 -1 C23.61707748 -0.88178743 26.56403869 1.43279534 30.125 4 C30.05147157 7.08819397 29.74786468 9.2670156 27.7109375 11.6640625 C22.48269238 16.33954162 17.54201371 18.47241438 10.390625 18.3359375 C7.62722085 17.92619137 5.28533577 17.02316995 2.6875 16 C-2.10427846 14.12727434 -6.7414841 12.81287445 -11.875 14 C-12.89955867 14.97482282 -13.90268526 15.97306084 -14.875 17 C-19.49487464 16.87167015 -23.03008176 14.33710717 -26.875 12 C-26.36574056 7.54397988 -25.09010967 5.13473193 -21.875 2 C-14.43871983 -2.50861081 -7.97078478 -3.48177806 0 0 Z " fill="#FDF8F8" transform="translate(655.875,62)"/>
<path d="M0 0 C0.33 0 0.66 0 1 0 C2.43627323 7.91850054 3.87067325 15.83733709 5.30266571 23.75661278 C5.96761561 27.43361346 6.63321652 31.11049384 7.30029297 34.78710938 C7.94371948 38.3335126 8.58545194 41.88021851 9.22599792 45.4271431 C9.47099671 46.78206995 9.71661155 48.13688555 9.96284485 49.49158859 C10.30692598 51.3852124 10.64863787 53.27926625 10.99023438 55.17333984 C11.18564819 56.25255707 11.38106201 57.33177429 11.58239746 58.44369507 C12 61 12 61 12 63 C4.74 63 -2.52 63 -10 63 C-10 58.23020677 -9.90641744 54.60912613 -9.08203125 50.06469727 C-8.88182373 48.94406387 -8.68161621 47.82343048 -8.4753418 46.6688385 C-8.256604 45.48003586 -8.03786621 44.29123322 -7.8125 43.06640625 C-7.59053955 41.83333237 -7.3685791 40.60025848 -7.13989258 39.32981873 C-6.55241177 36.07235894 -5.95969708 32.81591038 -5.36437988 29.55987549 C-4.7567069 26.22887076 -4.1560014 22.89661056 -3.5546875 19.56445312 C-2.37617383 13.04179939 -1.19074529 6.52043124 0 0 Z " fill="#DA2C31" transform="translate(864,109)"/>
<path d="M0 0 C1.65770196 2.99175374 2.45678063 5.66334896 3.05322266 9.0246582 C3.23325836 10.02282059 3.41329407 11.02098297 3.5987854 12.0493927 C3.78532684 13.12235092 3.97186829 14.19530914 4.1640625 15.30078125 C4.36099701 16.41051804 4.55793152 17.52025482 4.76083374 18.66362 C5.17566469 21.01080052 5.5873398 23.35854067 5.99609375 25.70678711 C6.62106312 29.28992866 7.25902038 32.87058377 7.8984375 36.45117188 C8.30026432 38.73423695 8.70133095 41.01743598 9.1015625 43.30078125 C9.2921524 44.36766678 9.48274231 45.43455231 9.67910767 46.5337677 C9.85283905 47.54138657 10.02657043 48.54900543 10.20556641 49.5871582 C10.35941803 50.46555862 10.51326965 51.34395905 10.67178345 52.24897766 C11.0570595 55.47825732 11 58.74781846 11 62 C4.07 62 -2.86 62 -10 62 C-10 53 -10 53 -9.08203125 48.13476562 C-8.88182373 47.05424927 -8.68161621 45.97373291 -8.4753418 44.86047363 C-8.256604 43.72057983 -8.03786621 42.58068604 -7.8125 41.40625 C-7.59053955 40.21898315 -7.3685791 39.03171631 -7.13989258 37.80847168 C-6.43334181 34.03767606 -5.7168233 30.26885487 -5 26.5 C-4.51756876 23.93501996 -4.03579075 21.36991696 -3.5546875 18.8046875 C-2.37735217 12.5350148 -1.1918397 6.26693073 0 0 Z " fill="#DA2D31" transform="translate(656,109)"/>
<path d="M0 0 C4.95 0 9.9 0 15 0 C15.45375 1.134375 15.9075 2.26875 16.375 3.4375 C17.57095806 7.04721692 17.57095806 7.04721692 20 8 C21.45579587 8.09555417 22.9160796 8.12984691 24.375 8.125 C25.14585937 8.12757812 25.91671875 8.13015625 26.7109375 8.1328125 C28.9328189 8.00389788 30.86618508 7.61383717 33 7 C33.66 4.69 34.32 2.38 35 0 C39.62 0 44.24 0 49 0 C49 6.2075095 48.28119454 8.99242532 45 14 C39.88422542 19.11577458 33.90056713 21.35140493 26.79589844 21.46850586 C26.07950195 21.45827393 25.36310547 21.44804199 24.625 21.4375 C23.50399902 21.42505249 23.50399902 21.42505249 22.36035156 21.41235352 C15.76002477 21.21049328 10.20286015 20.28233559 5.42578125 15.38671875 C1.77480118 10.66869006 0 6.00126502 0 0 Z " fill="#FDF6F6" transform="translate(841,59)"/>
<path d="M0 0 C3.99663994 2.24663192 6.36579541 4.47556456 8.8125 8.375 C9.62115278 13.31676698 8.71788133 16.73545722 6.07421875 20.86328125 C3.18318531 24.32715104 -0.11979151 25.21073716 -4.4375 25.875 C-10.22493187 25.10334242 -15.88671992 22.8186223 -19.94921875 18.50390625 C-22.20461033 14.62634029 -22.02318912 10.69935957 -21.1875 6.375 C-16.49164531 -1.83536229 -8.55073906 -3.90289415 0 0 Z " fill="#FCF2F2" transform="translate(69.1875,163.625)"/>
<path d="M0 0 C3.68266353 2.10437916 5.44595532 4.11152458 7 8 C7.65219956 13.86979605 7.8265484 19.22445158 5.3125 24.625 C1.82536006 28.20638696 -0.41902786 29.79878536 -5.4375 30.4375 C-10.36687328 29.83213837 -13.23853036 27.83259786 -16.64453125 24.2890625 C-19.48611933 19.49029992 -18.57370141 13.37533274 -18 8 C-14.92755192 -0.40404915 -7.88357489 -0.94649069 0 0 Z " fill="#FDF6F6" transform="translate(220,48)"/>
<path d="M0 0 C2.84625 -0.0825 5.6925 -0.165 8.625 -0.25 C9.51010254 -0.28641602 10.39520508 -0.32283203 11.30712891 -0.36035156 C16.6946415 -0.4355318 19.75911288 0.3724104 24 4 C26.59658396 7.89487594 26.15989384 10.03958093 25.61328125 14.55078125 C24.7112528 18.15314963 22.93856588 19.83105852 20 22 C17.29283758 22.90238747 15.76223232 23.11851302 12.98828125 23.09765625 C11.96408081 23.09390991 11.96408081 23.09390991 10.91918945 23.09008789 C10.05898193 23.08098389 9.19877441 23.07187988 8.3125 23.0625 C4.1978125 23.0315625 4.1978125 23.0315625 0 23 C0 15.41 0 7.82 0 0 Z " fill="#DA2C31" transform="translate(545,310)"/>
<path d="M0 0 C3.0078125 1.421875 3.0078125 1.421875 6 4 C6.62451902 7.13930971 6.25017574 10.09062533 5.875 13.25 C5.80023438 14.09046875 5.72546875 14.9309375 5.6484375 15.796875 C5.46021595 17.86731201 5.23378266 19.93421142 5 22 C7.64 18.37 10.28 14.74 13 11 C17 12 17 12 18.25 14.0625 C18.4975 14.701875 18.745 15.34125 19 16 C18.37955811 16.83978394 18.37955811 16.83978394 17.74658203 17.6965332 C15.87200518 20.23466077 13.99849127 22.77357103 12.125 25.3125 C11.47402344 26.19357422 10.82304687 27.07464844 10.15234375 27.98242188 C9.52714844 28.82998047 8.90195312 29.67753906 8.2578125 30.55078125 C7.6817627 31.33106689 7.10571289 32.11135254 6.51220703 32.9152832 C5.30267998 34.58272775 4.14264565 36.28603152 3 38 C1 37 -1 36 -3 35 C-3.11381955 28.23405981 -2.88021369 21.71162938 -2 15 C-2.54269531 15.78246094 -3.08539063 16.56492187 -3.64453125 17.37109375 C-4.35996094 18.38300781 -5.07539063 19.39492187 -5.8125 20.4375 C-6.52019531 21.44683594 -7.22789062 22.45617187 -7.95703125 23.49609375 C-10 26 -10 26 -13 27 C-15.1875 25.5625 -15.1875 25.5625 -17 24 C-15.70063656 20.37878413 -14.15796756 17.62462983 -11.77734375 14.609375 C-11.15666016 13.81789063 -10.53597656 13.02640625 -9.89648438 12.2109375 C-9.25001953 11.39882812 -8.60355469 10.58671875 -7.9375 9.75 C-7.28716797 8.92242187 -6.63683594 8.09484375 -5.96679688 7.2421875 C-1.23455598 1.23455598 -1.23455598 1.23455598 0 0 Z " fill="#FCF4F4" transform="translate(306,75)"/>
<path d="M0 0 C4.42995465 4.19591931 8.15197889 8.7982514 11.875 13.625 C12.48085937 14.388125 13.08671875 15.15125 13.7109375 15.9375 C14.278125 16.67226562 14.8453125 17.40703125 15.4296875 18.1640625 C16.20675049 19.16107178 16.20675049 19.16107178 16.99951172 20.17822266 C17.32967285 20.77940918 17.65983398 21.3805957 18 22 C17 25 17 25 14 27 C7.05574316 26.53770528 1.17312803 22.96058181 -5 20 C-2.03 23.96 0.94 27.92 4 32 C2 36 2 36 -0.125 36.75 C-0.74375 36.8325 -1.3625 36.915 -2 37 C-7.84936535 29.79587701 -13.47003054 22.45009775 -19 15 C-17.35 13.35 -15.7 11.7 -14 10 C-7.2813095 11.99613268 -1.19265192 14.7291421 5 18 C4.278125 17.08476563 3.55625 16.16953125 2.8125 15.2265625 C1.8747473 14.02623905 0.93726105 12.8257074 0 11.625 C-0.47695312 11.02171875 -0.95390625 10.4184375 -1.4453125 9.796875 C-5 5.2265625 -5 5.2265625 -5 3 C-2.5 1.375 -2.5 1.375 0 0 Z " fill="#FCF4F5" transform="translate(120,75)"/>
<path d="M0 0 C3.02308827 1.41188933 6.04303358 2.83038351 9.0625 4.25 C9.91005859 4.64574219 10.75761719 5.04148438 11.63085938 5.44921875 C16.55715708 7.76971419 21.31287621 10.22715608 26 13 C24.125 17.75 24.125 17.75 23 20 C16.73 20.33 10.46 20.66 4 21 C8.62 23.31 13.24 25.62 18 28 C17.34 29.98 16.68 31.96 16 34 C13 35 13 35 10.56396484 34.05957031 C9.62246582 33.57069336 8.6809668 33.08181641 7.7109375 32.578125 C6.68742187 32.04703125 5.66390625 31.5159375 4.609375 30.96875 C3.00835937 30.11796875 3.00835937 30.11796875 1.375 29.25 C0.29992187 28.69828125 -0.77515625 28.1465625 -1.8828125 27.578125 C-9.87289541 23.38131378 -9.87289541 23.38131378 -11 20 C-10.16796875 17.36328125 -10.16796875 17.36328125 -8 15 C-4.78429331 14.2175088 -1.61066507 14.20921433 1.6875 14.1875 C2.58017578 14.16236328 3.47285156 14.13722656 4.39257812 14.11132812 C6.5945777 14.05245113 8.79733735 14.02336479 11 14 C6.38 11.69 1.76 9.38 -3 7 C-1 1 -1 1 0 0 Z " fill="#FDF6F6" transform="translate(67,129)"/>
<path d="M0 0 C3.53786617 1.43020122 4.63735151 2.25743404 6.3125 5.6875 C6.6528125 6.8321875 6.6528125 6.8321875 7 8 C3.625 8.625 3.625 8.625 0 9 C-0.66 8.34 -1.32 7.68 -2 7 C-4.54190002 6.7499227 -4.54190002 6.7499227 -7 7 C-8.23427331 8.01384805 -8.23427331 8.01384805 -8.1328125 10.109375 C-8.13257014 16.61247444 -8.13257014 16.61247444 -7 23 C-4.36 23 -1.72 23 1 23 C1.33 21.35 1.66 19.7 2 18 C0.02 18 -1.96 18 -4 18 C-3.67 16.35 -3.34 14.7 -3 13 C0.63 12.67 4.26 12.34 8 12 C10.54625551 20.83700441 10.54625551 20.83700441 9 25 C6.84814427 27.90500524 4.44490785 29.02643909 1 30 C-3.92261183 30.69153142 -7.03192956 30.57367137 -11.375 28 C-15.40469739 23.39463155 -17.09823176 18.9244654 -17.375 12.8125 C-16.86635814 7.64130777 -15.31888327 5.43525532 -11.875 1.6875 C-7.86554926 -0.66587326 -4.54346107 -0.67615936 0 0 Z " fill="#FCF1F1" transform="translate(187,50)"/>
<path d="M0 0 C3.0525 -0.061875 6.105 -0.12375 9.25 -0.1875 C10.68327637 -0.22846802 10.68327637 -0.22846802 12.14550781 -0.27026367 C18.3181658 -0.33099761 18.3181658 -0.33099761 21.55078125 1.23828125 C24.18166651 4.4364733 24.18376685 7.9783332 24 12 C22.83885237 14.87231255 21.93652939 16.32971588 19.43359375 18.12109375 C15.73271313 19.45768788 12.14805177 19.20839263 8.25 19.125 C4.16625 19.063125 4.16625 19.063125 0 19 C0 12.73 0 6.46 0 0 Z " fill="#DA282D" transform="translate(545,284)"/>
<path d="M0 0 C0.66 1.65 1.32 3.3 2 5 C0.37750059 5.83819158 -1.24808497 6.6704116 -2.875 7.5 C-3.77992188 7.9640625 -4.68484375 8.428125 -5.6171875 8.90625 C-8 10 -8 10 -10 10 C-9.01 11.65 -8.02 13.3 -7 15 C-5.9275 14.484375 -4.855 13.96875 -3.75 13.4375 C-1.40797154 12.43715991 -0.20196374 11.98937033 2.375 12.125 C4 13 4 13 5 16 C-1.625 20 -1.625 20 -5 20 C-4.01 21.98 -3.02 23.96 -2 26 C1.63 24.35 5.26 22.7 9 21 C12 25 12 25 12 27 C6.06 29.64 0.12 32.28 -6 35 C-7.60494203 31.95874024 -9.20897799 28.91700837 -10.8125 25.875 C-11.26431641 25.0190625 -11.71613281 24.163125 -12.18164062 23.28125 C-19 10.3412979 -19 10.3412979 -19 8 C-16.21128823 6.66042079 -13.41856938 5.32941565 -10.625 4 C-9.8309375 3.6184375 -9.036875 3.236875 -8.21875 2.84375 C-7.45820313 2.4828125 -6.69765625 2.121875 -5.9140625 1.75 C-5.2123291 1.41484375 -4.5105957 1.0796875 -3.78759766 0.734375 C-2 0 -2 0 0 0 Z " fill="#FCF3F3" transform="translate(148,61)"/>
<path d="M0 0 C1.06541016 0.04060547 2.13082031 0.08121094 3.22851562 0.12304688 C5.84460872 0.22862911 8.45113412 0.37604217 11.0625 0.5625 C7.09244878 5.39882634 2.8966123 9.75184012 -1.75 13.9375 C-2.90236662 14.98695405 -4.05471154 16.03643194 -5.20703125 17.0859375 C-6.10808594 17.90320313 -7.00914063 18.72046875 -7.9375 19.5625 C-8.2675 19.8925 -8.5975 20.2225 -8.9375 20.5625 C-11.80017567 20.63575168 -14.638219 20.65488205 -17.5 20.625 C-18.30630859 20.62048828 -19.11261719 20.61597656 -19.94335938 20.61132812 C-21.94143756 20.59950518 -23.93947783 20.58156914 -25.9375 20.5625 C-24.92298843 18.91276234 -23.90044421 17.26796446 -22.875 15.625 C-22.30652344 14.70847656 -21.73804688 13.79195312 -21.15234375 12.84765625 C-20.42144531 11.76355469 -19.69054688 10.67945312 -18.9375 9.5625 C-18.47931885 8.78124756 -18.0211377 7.99999512 -17.54907227 7.19506836 C-12.71406974 -0.23432577 -8.51795746 -0.61862261 0 0 Z " fill="#FEFBFB" transform="translate(1265.9375,59.4375)"/>
<path d="M0 0 C3.37462715 0.54723683 5.08235 1.0549 8 3 C7.7834375 4.19238281 7.566875 5.38476562 7.34375 6.61328125 C7.06236404 8.17966308 6.78112151 9.74607068 6.5 11.3125 C6.28537109 12.49102539 6.28537109 12.49102539 6.06640625 13.69335938 C5.86337891 14.8293457 5.86337891 14.8293457 5.65625 15.98828125 C5.53056641 16.68477783 5.40488281 17.38127441 5.27539062 18.09887695 C4.92831974 20.17467433 4.92831974 20.17467433 5 23 C6.43852875 21.25084555 7.87578198 19.50064205 9.3125 17.75 C10.11300781 16.77546875 10.91351563 15.8009375 11.73828125 14.796875 C13.54442258 12.5633738 15.29819915 10.31312737 17 8 C19.93703384 8.62936439 22.33788628 9.62420173 25 11 C23.00396268 13.33682418 21.00367433 15.66973558 19 18 C18.43539063 18.66 17.87078125 19.32 17.2890625 20 C15.54628034 22.01878839 13.7761547 24.01055162 12 26 C11.40960938 26.69222656 10.81921875 27.38445312 10.2109375 28.09765625 C8.54980831 29.93807031 7.01649205 31.55700569 5 33 C1.6875 33.0625 1.6875 33.0625 -1 32 C-3 30 -3 30 -3.046875 27.55859375 C-2.94890625 26.52863281 -2.8509375 25.49867187 -2.75 24.4375 C-2.64300781 23.28765625 -2.53601563 22.1378125 -2.42578125 20.953125 C-1.67275719 13.96174564 -0.86086863 6.97888651 0 0 Z " fill="#FCF5F5" transform="translate(274,59)"/>
<path d="M0 0 C2.875 -0.125 2.875 -0.125 6 0 C8.35358251 2.35358251 8.27871904 2.92968394 8.4140625 6.1328125 C8.44967285 6.85871582 8.4852832 7.58461914 8.52197266 8.33251953 C8.55597168 9.25403809 8.5899707 10.17555664 8.625 11.125 C8.74875 14.05375 8.8725 16.9825 9 20 C11.97 14.39 14.94 8.78 18 3 C20.64 3.33 23.28 3.66 26 4 C25.322227 7.561056 23.85232971 10.28719079 22.05859375 13.421875 C21.47529297 14.44667969 20.89199219 15.47148438 20.29101562 16.52734375 C19.37352539 18.12255859 19.37352539 18.12255859 18.4375 19.75 C17.82197266 20.82894531 17.20644531 21.90789062 16.57226562 23.01953125 C15.05244312 25.68216602 13.52821656 28.34217696 12 31 C5.25 31.125 5.25 31.125 3 30 C2.49755859 27.67089844 2.49755859 27.67089844 2.1484375 24.609375 C2.01953125 23.50722656 1.890625 22.40507813 1.7578125 21.26953125 C1.63148438 20.10808594 1.50515625 18.94664063 1.375 17.75 C1.2409375 16.60402344 1.106875 15.45804688 0.96875 14.27734375 C0.42288261 9.49264898 -0.08289092 4.82093582 0 0 Z " fill="#FCF5F5" transform="translate(234,49)"/>
<path d="M0 0 C6.72918698 3.43936223 12.24900261 8.13297147 18 13 C18.78761719 12.21238281 19.57523438 11.42476562 20.38671875 10.61328125 C22.2578125 8.7421875 24.12890625 6.87109375 26 5 C27.32 5.66 28.64 6.32 30 7 C30 11.2650016 27.55526586 13.50032379 25 16.6875 C24.28457031 17.59725586 24.28457031 17.59725586 23.5546875 18.52539062 C22.37623606 20.02202396 21.18894812 21.51169173 20 23 C14.71329751 21.42435534 11.01919993 17.97992016 6.875 14.5 C5.45661668 13.32184737 4.03737934 12.14472194 2.6171875 10.96875 C1.99440918 10.44732422 1.37163086 9.92589844 0.72998047 9.38867188 C-1.16098876 7.82892123 -1.16098876 7.82892123 -4 6 C-2.84826645 3.53199953 -1.95216435 1.95216435 0 0 Z " fill="#FCF3F3" transform="translate(77,115)"/>
<path d="M0 0 C3.36335594 1.45745424 5.54534005 3.31117854 8.109375 5.9140625 C8.86347656 6.67460938 9.61757812 7.43515625 10.39453125 8.21875 C11.17183594 9.0128125 11.94914062 9.806875 12.75 10.625 C13.54277344 11.42679688 14.33554688 12.22859375 15.15234375 13.0546875 C17.10614493 15.03202846 19.05512103 17.01388909 21 19 C19.63016497 22.16115776 19.0109362 22.9927092 16 25 C9.4 18.4 2.8 11.8 -4 5 C-2.68 3.35 -1.36 1.7 0 0 Z " fill="#FDF7F7" transform="translate(94,96)"/>
<path d="M0 0 C2.875 0.3125 2.875 0.3125 6 1 C8.96649269 5.44973903 8.6317693 9.7820536 8 15 C6.3125 17.75 6.3125 17.75 4 19 C0.60845705 18.83849795 -0.58296757 18.41703243 -3 16 C-3.62123884 10.98974906 -3.66176218 6.40624464 -1.5 1.8125 C-1.005 1.214375 -0.51 0.61625 0 0 Z " fill="#DB3034" transform="translate(212,53)"/>
<path d="M0 0 C4.62404428 0.44748816 8.14431922 1.56793436 11.875 4.375 C13 6.9375 13 6.9375 12.875 9.375 C11.885 10.86 11.885 10.86 10.875 12.375 C6.08297248 13.25055709 1.16253456 12.71365521 -3.125 10.375 C-5.125 8.375 -5.125 8.375 -5.375 5.375 C-5.02372624 1.15971492 -4.17212983 0.50065558 0 0 Z " fill="#DB3035" transform="translate(59.125,168.625)"/>
<path d="M0 0 C4.16856239 0.56443888 5.28531681 2.05680187 7.95703125 5.23828125 C8.72660156 6.13160156 9.49617187 7.02492188 10.2890625 7.9453125 C12.14453125 10.42578125 12.14453125 10.42578125 13.14453125 13.42578125 C9.95703125 13.80078125 9.95703125 13.80078125 6.14453125 13.42578125 C4.00418145 11.61390097 2.75464823 9.76776958 1.14453125 7.42578125 C-1.44993569 8.49935378 -2.65476565 9.08458598 -4.10546875 11.55078125 C-5.85546875 13.42578125 -5.85546875 13.42578125 -7.8203125 13.68359375 C-9.83385353 13.67651628 -11.84623043 13.55753458 -13.85546875 13.42578125 C-4.6629887 0.69530201 -4.6629887 0.69530201 0 0 Z " fill="#FAEAEA" transform="translate(755.85546875,258.57421875)"/>
<path d="M0 0 C4.16856239 0.56443888 5.28531681 2.05680187 7.95703125 5.23828125 C8.72660156 6.13160156 9.49617187 7.02492188 10.2890625 7.9453125 C12.14453125 10.42578125 12.14453125 10.42578125 13.14453125 13.42578125 C9.95703125 13.80078125 9.95703125 13.80078125 6.14453125 13.42578125 C4.00418145 11.61390097 2.75464823 9.76776958 1.14453125 7.42578125 C-1.44993569 8.49935378 -2.65476565 9.08458598 -4.10546875 11.55078125 C-5.85546875 13.42578125 -5.85546875 13.42578125 -7.8203125 13.68359375 C-9.83385353 13.67651628 -11.84623043 13.55753458 -13.85546875 13.42578125 C-4.6629887 0.69530201 -4.6629887 0.69530201 0 0 Z " fill="#FAEAEA" transform="translate(614.85546875,258.57421875)"/>
<path d="M0 0 C2.5 0.25 2.5 0.25 4.5 2.25 C4.125 5.875 4.125 5.875 3.5 9.25 C1.16705225 9.29241723 -1.16702567 9.29092937 -3.5 9.25 C-4.5 8.25 -4.5 8.25 -4.6875 5.3125 C-4.45388199 1.49673913 -3.88335294 0.38833529 0 0 Z " fill="#FDF7F7" transform="translate(614.5,345.75)"/>
<path d="M0 0 C0.598125 0.20625 1.19625 0.4125 1.8125 0.625 C2.5 2.4375 2.5 2.4375 2.8125 4.625 C1.625 6.4375 1.625 6.4375 -0.1875 7.625 C-2.375 7.3125 -2.375 7.3125 -4.1875 6.625 C-4.5175 4.975 -4.8475 3.325 -5.1875 1.625 C-2.1875 -0.375 -2.1875 -0.375 0 0 Z " fill="#FAE7E7" transform="translate(167.1875,78.375)"/>
<path d="M0 0 C2.625 0.375 2.625 0.375 5 1 C5.625 2.875 5.625 2.875 6 5 C4 7 4 7 1.375 7.125 C0.59125 7.08375 -0.1925 7.0425 -1 7 C-1.625 4.625 -1.625 4.625 -2 2 C-1.34 1.34 -0.68 0.68 0 0 Z " fill="#FAEAEB" transform="translate(255,77)"/>
</svg>
